<svg width="512" height="496" viewBox="0 0 512 496" fill="none" xmlns="http://www.w3.org/2000/svg">
<path d="M508.502 183.605C504.138 169.715 495.42 157.598 483.637 149.046C471.853 140.494 457.631 135.961 443.072 136.117H349.867L321.558 47.8826C317.106 33.9937 308.358 21.8775 296.576 13.2813C284.793 4.68508 270.585 0.0529785 256 0.0529785C241.415 0.0529785 227.207 4.68508 215.425 13.2813C203.642 21.8775 194.895 33.9937 190.443 47.8826L162.134 136.117H68.9282C54.4161 136.138 40.2816 140.744 28.5438 149.278C16.8059 157.812 8.06508 169.837 3.56973 183.635C-0.925614 197.433 -0.945511 212.299 3.51288 226.11C7.97128 239.92 16.6799 251.968 28.3949 260.533L104.256 316L75.4135 405.323C70.7525 419.176 70.6934 434.165 75.2452 448.055C79.797 461.945 88.7159 473.992 100.672 482.4C112.424 491.078 126.665 495.727 141.273 495.654C155.881 495.581 170.075 490.79 181.739 481.995L256 427.339L330.283 481.931C342.013 490.559 356.177 495.245 370.739 495.316C385.3 495.387 399.509 490.839 411.323 482.325C423.137 473.812 431.947 461.771 436.486 447.935C441.026 434.099 441.061 419.18 436.587 405.323L407.744 316L483.691 260.533C495.54 252.076 504.351 240.028 508.819 226.173C513.288 212.318 513.176 197.392 508.502 183.605ZM458.518 226.08L370.112 290.699C366.481 293.348 363.779 297.076 362.393 301.351C361.006 305.626 361.005 310.231 362.39 314.507L395.99 418.4C397.69 423.669 397.675 429.342 395.948 434.603C394.221 439.864 390.87 444.441 386.377 447.677C381.885 450.913 376.481 452.642 370.945 452.613C365.408 452.585 360.022 450.802 355.563 447.52L268.63 383.52C264.968 380.83 260.543 379.38 256 379.38C251.457 379.38 247.032 380.83 243.371 383.52L156.438 447.52C151.981 450.846 146.58 452.666 141.019 452.717C135.458 452.767 130.026 451.045 125.509 447.801C120.993 444.556 117.627 439.957 115.9 434.671C114.173 429.384 114.174 423.685 115.904 418.4L149.611 314.507C150.996 310.231 150.995 305.626 149.608 301.351C148.221 297.076 145.519 293.348 141.888 290.699L53.4829 226.08C49.0307 222.82 45.7225 218.237 44.031 212.984C42.3394 207.732 42.3509 202.079 44.0639 196.834C45.7769 191.589 49.1037 187.019 53.5691 183.777C58.0345 180.535 63.4102 178.788 68.9282 178.784H177.728C182.245 178.784 186.645 177.35 190.295 174.69C193.944 172.029 196.655 168.279 198.038 163.979L231.104 60.9172C232.802 55.6433 236.128 51.044 240.606 47.7812C245.084 44.5185 250.481 42.7606 256.022 42.7606C261.562 42.7606 266.959 44.5185 271.437 47.7812C275.915 51.044 279.242 55.6433 280.939 60.9172L314.006 163.979C315.388 168.279 318.099 172.029 321.749 174.69C325.398 177.35 329.798 178.784 334.315 178.784H443.115C448.633 178.788 454.009 180.535 458.474 183.777C462.939 187.019 466.266 191.589 467.979 196.834C469.692 202.079 469.704 207.732 468.012 212.984C466.321 218.237 463.012 222.82 458.56 226.08H458.518Z" fill="#304859"/>
</svg>
