<svg width="512" height="506" viewBox="0 0 512 506" fill="none" xmlns="http://www.w3.org/2000/svg">
<path d="M284.544 11.7705C276.709 4.71852 266.541 0.816406 256 0.816406C245.459 0.816406 235.291 4.71852 227.456 11.7705L0 216.485V438.352C0 456.457 7.19236 473.821 19.9948 486.624C32.7973 499.426 50.1612 506.619 68.2667 506.619H149.333V356.667C149.333 328.377 160.571 301.246 180.575 281.242C200.579 261.238 227.71 250 256 250C284.29 250 311.421 261.238 331.425 281.242C351.429 301.246 362.667 328.377 362.667 356.667V506.555H443.733C461.839 506.555 479.203 499.362 492.005 486.56C504.808 473.757 512 456.393 512 438.288V216.421L284.544 11.7705Z" fill="#304859"/>
</svg>
