<svg width="465" height="512" viewBox="0 0 465 512" fill="none" xmlns="http://www.w3.org/2000/svg">
<path d="M460.173 291.456L419.64 145.621C407.759 102.898 381.939 65.3715 346.282 39.0074C310.625 12.6433 267.179 -1.04555 222.85 0.116688C178.521 1.27893 135.852 17.2256 101.625 45.4219C67.3994 73.6182 43.5805 112.446 33.9548 155.733L2.57343 296.853C-0.892904 312.447 -0.812762 328.619 2.80795 344.178C6.42866 359.736 13.4975 374.282 23.4925 386.743C33.4876 399.203 46.1536 409.26 60.5555 416.17C74.9575 423.08 90.7275 426.667 106.701 426.667H130.467C135.363 450.78 148.445 472.458 167.496 488.029C186.547 503.601 210.395 512.107 235 512.107C259.605 512.107 283.453 503.601 302.504 488.029C321.555 472.458 334.637 450.78 339.533 426.667H357.411C373.855 426.668 390.076 422.867 404.808 415.561C419.54 408.256 432.384 397.643 442.335 384.552C452.286 371.461 459.076 356.246 462.175 340.097C465.273 323.947 464.574 307.3 460.173 291.456ZM235 469.333C221.811 469.279 208.96 465.15 198.207 457.513C187.453 449.875 179.322 439.102 174.925 426.667H295.075C290.678 439.102 282.547 449.875 271.794 457.513C261.04 465.15 248.19 469.279 235 469.333ZM408.355 358.72C402.41 366.606 394.708 372.997 385.861 377.386C377.014 381.774 367.265 384.039 357.389 384H106.701C97.1182 383.998 87.6576 381.845 79.018 377.698C70.3785 373.551 62.7805 367.517 56.7849 360.041C50.7893 352.564 46.5491 343.837 44.3774 334.503C42.2057 325.169 42.1579 315.467 44.2374 306.112L75.5974 164.971C83.157 130.97 101.865 100.472 128.748 78.3243C155.632 56.177 189.147 43.6517 223.966 42.7396C258.785 41.8274 292.91 52.5807 320.916 73.2901C348.922 93.9994 369.201 123.476 378.531 157.035L419.064 302.869C421.742 312.371 422.169 322.365 420.31 332.06C418.451 341.755 414.358 350.883 408.355 358.72Z" fill="#304859"/>
</svg>
