<svg width="512" height="451" viewBox="0 0 512 451" fill="none" xmlns="http://www.w3.org/2000/svg">
<path d="M373.333 0.895996C349.311 1.26965 325.812 7.97553 305.211 20.3364C284.609 32.6974 267.634 50.2756 256 71.296C244.365 50.2756 227.39 32.6974 206.789 20.3364C186.187 7.97553 162.689 1.26965 138.666 0.895996C100.372 2.5598 64.2922 19.3121 38.3098 47.493C12.3274 75.6738 -1.44558 112.993 -0.000238753 151.296C-0.000238753 248.299 102.101 354.24 187.733 426.069C206.852 442.136 231.026 450.945 256 450.945C280.974 450.945 305.147 442.136 324.266 426.069C409.898 354.24 512 248.299 512 151.296C513.445 112.993 499.672 75.6738 473.69 47.493C447.707 19.3121 411.628 2.5598 373.333 0.895996Z" fill="#304859"/>
</svg>
