<svg width="512" height="512" viewBox="0 0 512 512" fill="none" xmlns="http://www.w3.org/2000/svg">
<path d="M493.205 18.816C485.557 11.0747 476.041 5.43688 465.577 2.44726C455.114 -0.542374 444.056 -0.782766 433.472 1.7493L92.1387 73.6426C72.4817 76.3385 53.9677 84.4688 38.6817 97.1181C23.3957 109.767 11.9449 126.433 5.61872 145.239C-0.707426 164.044 -1.6576 184.242 2.87519 203.559C7.40799 222.875 17.2437 240.542 31.2747 254.571L67.9254 291.2C69.9091 293.183 71.4822 295.538 72.5548 298.13C73.6273 300.721 74.1783 303.499 74.1761 306.304V373.888C74.2231 383.39 76.4106 392.76 80.5761 401.301L80.4054 401.451L80.9601 402.005C87.211 414.573 97.4205 424.738 110.016 430.933L110.571 431.488L110.72 431.317C119.261 435.483 128.631 437.67 138.133 437.717H205.717C211.372 437.713 216.797 439.953 220.8 443.947L257.429 480.576C267.254 490.509 278.947 498.4 291.835 503.793C304.724 509.186 318.552 511.976 332.523 512C344.165 511.986 355.729 510.083 366.763 506.368C385.396 500.249 401.949 489.046 414.554 474.02C427.16 458.995 435.315 440.747 438.101 421.333L510.101 79.2533C512.765 68.579 512.608 57.3956 509.646 46.8002C506.684 36.2049 501.018 26.5615 493.205 18.816ZM98.1334 261.077L61.4614 224.448C52.9221 216.114 46.9371 205.518 44.2088 193.902C41.4806 182.286 42.1223 170.133 46.0587 158.869C49.8752 147.314 56.9303 137.097 66.3851 129.435C75.8398 121.773 87.2963 116.987 99.3921 115.648L437.333 44.5013L116.8 365.077V306.304C116.832 297.906 115.199 289.585 111.995 281.822C108.791 274.059 104.08 267.008 98.1334 261.077ZM396.181 414.037C394.543 425.82 389.654 436.914 382.061 446.072C374.468 455.231 364.473 462.092 353.198 465.885C341.922 469.678 329.812 470.253 318.228 467.546C306.644 464.839 296.043 458.957 287.616 450.56L250.923 413.867C245 407.911 237.955 403.19 230.196 399.974C222.436 396.759 214.116 395.115 205.717 395.136H146.944L467.52 74.6666L396.181 414.037Z" fill="#304859"/>
</svg>
